<svg xmlns="http://www.w3.org/2000/svg" version="1.1" xmlns:xlink="http://www.w3.org/1999/xlink" xmlns:svgjs="http://svgjs.com/svgjs" width="1920" height="1080" preserveAspectRatio="none" viewBox="0 0 1920 1080"><g mask="url(&quot;#SvgjsMask1030&quot;)" fill="none"><rect width="1920" height="1080" x="0" y="0" fill="rgba(54, 54, 54, 1)"></rect><path d="M0,641.454C166.209,682.187,342.052,848.629,488.707,760.443C633.807,673.191,539.815,432.601,606.287,276.882C670.191,127.18,892.061,36.168,866.503,-124.584C840.837,-286.01,607.607,-310.517,494.182,-428.211C389.493,-536.84,359.17,-706.052,230.391,-784.639C84.476,-873.683,-104.976,-958.789,-261.062,-889.096C-419.325,-818.431,-438.306,-603.191,-519.241,-449.925C-580.698,-333.545,-648.91,-225.748,-679.012,-97.627C-711.529,40.772,-763.29,192.373,-700.065,319.709C-637.089,446.542,-484.381,494.364,-355.713,553.499C-242.437,605.56,-121.084,611.78,0,641.454" fill="#2b2b2b"></path><path d="M1920 1955.9279999999999C2081.932 1961.958 2160.428 1753.231 2290.89 1657.117 2410.4 1569.0720000000001 2586.423 1547.374 2653.977 1415.196 2721.916 1282.2640000000001 2645.458 1125.805 2638.6549999999997 976.673 2630.958 807.9300000000001 2700.369 624.4970000000001 2611.36 480.933 2519.98 333.544 2338.1530000000002 271.438 2171.555 223.28099999999995 2005.469 175.27200000000005 1818.416 129.91600000000005 1663.662 206.99199999999996 1512.8809999999999 282.08900000000006 1468.372 469.755 1383.981 615.537 1315.806 733.307 1235.202 844.067 1216.818 978.898 1198.517 1113.124 1216.778 1252.533 1280.855 1371.888 1342.819 1487.307 1469.74 1541.7730000000001 1566.446 1630.141 1687.195 1740.479 1756.544 1949.842 1920 1955.9279999999999" fill="#414141"></path></g><defs><mask id="SvgjsMask1030"><rect width="1920" height="1080" fill="#ffffff"></rect></mask></defs></svg>